<svg width="130" height="84" viewBox="0 0 130 84" fill="none" xmlns="http://www.w3.org/2000/svg">
<path d="M130 56.3764C130 41.1203 113.952 26.7125 101.144 35.5018C83.7214 18.7079 119.86 -2.20097 113.952 0.187531C75.6835 15.6595 74 42.8785 74 53.8652C74 69.1213 87.8427 84 102.842 84C117.841 84 130 71.6325 130 56.3764Z" fill="#FF471D" fill-opacity="0.2"/>
<path d="M57 56.3764C57 41.1203 40.6654 26.7125 27.6291 35.5018C9.89501 18.7079 46.6786 -2.20097 40.6654 0.187531C1.71358 15.6595 0 42.8785 0 53.8652C0 69.1213 14.0899 84 29.3568 84C44.6237 84 57 71.6325 57 56.3764Z" fill="#FF471D" fill-opacity="0.2"/>
</svg>
