<svg width="46" height="47" viewBox="0 0 46 47" fill="none" xmlns="http://www.w3.org/2000/svg">
<path d="M0 46H1.25498L4.93028 23.3207C5.10956 22.0956 6.2749 19.6454 9.50199 19.6454M9.50199 19.6454C12.7291 19.6454 19.0339 20.3028 21.7829 20.6315C22.2554 21.0013 22.8579 21.7271 22.6521 22.4243M9.50199 19.6454C7.25068 19.7254 5.33874 17.7709 5.46813 15.5219C5.59053 13.3943 7.37317 11.7476 9.50199 11.8466C11.5296 11.9409 13.0608 13.4954 13.1773 15.5219C13.3011 17.6755 11.6556 19.5216 9.50199 19.6454ZM20.7968 46H15.8665V35.0637L10.1295 32.0159L10.757 24.4861L21.7829 23.3207C22.2981 23.0519 22.5585 22.7411 22.6521 22.4243M20.7968 46L22.6521 22.4243M20.7968 46H27.8785V35.0637L35.3187 32.0159L34.4223 25.0239C32.5697 24.1574 28.3626 22.245 26.3546 21.5279C24.3466 20.8108 23.2529 19.0179 22.9571 18.2112M22.6521 22.4243L22.9571 18.2112M23.5737 9.69522L24.2032 1C25.4283 2.01594 28.5777 3.8506 31.3745 3.06175C34.1713 2.27291 36.9622 1.35857 38.008 1C39.3526 1.20916 42.3108 1.77092 43.3865 2.34462C41.6235 2.70319 37.6494 4.4243 35.8566 8.44024C34.0637 12.4562 26.921 10.9502 23.5737 9.69522ZM23.5737 9.69522L22.9571 18.2112M35.8566 19.6454C38.0359 19.5727 39.7468 17.6989 39.6215 15.5219C39.5035 13.4706 37.9113 11.8466 35.8566 11.8466C33.8019 11.8466 32.2097 13.4706 32.0916 15.5219C31.9664 17.6989 33.6772 19.5727 35.8566 19.6454ZM35.8566 19.6454C33.8247 19.7948 28.8645 19.5737 25.2789 17.494C24.5266 17.4343 23.009 17.494 22.9571 18.2112M35.8566 19.6454C37.2908 19.4064 40.1594 19.8068 40.1594 23.3207L44.0139 46H45.5378M4.93028 46L7.08167 35.0637L11.9223 37.0359V46H4.93028ZM31.3745 46H40.1594L38.008 35.0637L31.3745 37.0359V46Z" stroke="#131414"/>
</svg>
