<svg width="46" height="47" viewBox="0 0 46 47" fill="none" xmlns="http://www.w3.org/2000/svg">
<path d="M23.011 24.0135C26.0143 24.1561 28.5861 21.6796 28.5569 18.6729C28.5281 15.694 25.9888 13.35 23.011 13.435C20.1193 13.5177 17.8012 15.7803 17.7731 18.6729C17.7447 21.5941 20.0898 23.9851 23.011 24.0135ZM23.011 24.0135C20.9569 23.8081 16.2941 24.5886 14.0757 29.3541C13.9979 29.6654 13.9312 30.0356 13.8936 30.4314M23.011 24.0135C25.5155 23.7004 27.7076 24.7121 29.3786 26.0249M29.3786 26.0249C30.7774 27.1238 31.811 28.4337 32.357 29.3541C32.4918 29.739 32.5743 30.0977 32.6126 30.4314M29.3786 26.0249C30.1318 24.3274 35.4363 21.1871 37.2868 21.3432M37.2868 21.3432C38.9136 21.3305 44.5103 24.6013 45.2977 26.0249C45.64 27.1346 45.6674 29.5184 43.0382 30.1757L32.6126 30.4314M37.2868 21.3432C34.8569 21.3855 32.8825 19.6502 32.6126 17.2351C32.3113 14.5401 34.5755 12.0457 37.2868 12.0999C39.7821 12.1497 41.7503 14.1237 41.8058 16.6188C41.8625 19.1713 39.8393 21.2865 37.2868 21.3432ZM32.6126 30.4314C32.9012 32.9464 30.6783 34.0421 29.3786 34.2838C26.2633 34.2838 19.3136 34.2838 16.4379 34.2838C14.107 34.2838 13.7329 32.1246 13.8936 30.4314M16.4379 26.0249C15.6506 24.3274 12.9871 21.0146 8.63251 21.3432M8.63251 21.3432C4.27788 21.6719 1.81984 24.6013 1.13515 26.0249C0.827044 27.2024 0.847585 29.7321 3.39463 30.4314H13.8936M8.63251 21.3432C11.2677 21.4585 13.5182 19.2559 13.4596 16.6188C13.4023 14.0372 11.2148 12.0999 8.63251 12.0999C6.05029 12.0999 3.86282 14.0373 3.80549 16.6188C3.74693 19.2559 5.99733 21.4584 8.63251 21.3432ZM9.24878 33.4622C9.24878 33.4622 14.0757 40.6515 22.6002 40.6515C31.8457 40.6515 36.6706 33.4622 36.6706 33.4622M3.39463 33.4622C3.39463 33.4622 9.25159 46.3654 22.6002 45.992C37.2868 45.5813 42.6274 33.4622 42.6274 33.4622M12.3299 10.0458C12.3299 10.0458 16.1299 5.62957 22.6002 5.62957C29.3811 5.62957 33.6922 10.0458 33.6922 10.0458M5.96226 9.4296C5.96226 9.4296 11.9232 1.30455 22.6002 1.00797C33.6922 0.699863 40.3679 9.4296 40.3679 9.4296" stroke="#131414"/>
</svg>
