<svg width="66" height="46" viewBox="0 0 66 46" fill="none" xmlns="http://www.w3.org/2000/svg">
<path d="M33.2297 21.8919C33.2297 21.8919 39.3108 22.5 39.3108 27.973C39.3108 31.6673 36.9206 34.5017 33.2297 34.6622C26.5405 34.953 25.9324 27.973 25.9324 27.973M16.8108 9.72977L11.3378 5.47297M33.2297 5.47297V0M49.6486 9.72977L53.9054 5.47297M1 27.973C5.66216 21.4865 18.6351 8.7568 33.2297 9.72977C47.8243 10.7027 60.3919 22.2973 64.8514 27.973C60.3919 33.6487 47.8243 45 33.2297 45C18.6351 45 5.66216 33.6487 1 27.973ZM33.2297 15.8108C40.1096 16.1225 45.8321 21.0881 46 27.973C46.1719 35.0237 40.2753 40.423 33.2297 40.7432C25.8411 41.0791 19.0641 35.3671 19.2432 27.973C19.4186 20.7368 25.9988 15.4833 33.2297 15.8108Z" stroke="#FF471D"/>
</svg>
