<svg width="1920" height="980" viewBox="0 0 1920 980" fill="none" xmlns="http://www.w3.org/2000/svg">
<path d="M260 0H-100V360M260 0V360M260 0H620M260 360H-100M260 360H620M260 360V720M-100 360V720M-100 39.5H1340M-100 119.5H1340M-100 199.5H1340M-100 279.5H1340M-100 79.5H1340M-100 159.5H1340M-100 239.5H1340M-100 319.5H1340M139.5 0V1080M59.5 0V1080M219.5 0V1080M-20.5 0V1080M-60.5 0V1080M179.5 0V1080M19.5 0V1080M99.5 0V1080M620 0H980M620 0V360M980 0V360M980 0H1340V360M980 360H620M980 360H1340M980 360V720M620 360V720M859.5 0V1080M779.5 0V1080M939.5 0V1080M699.5 0V1080M659.5 0V1080M899.5 0V1080M739.5 0V1080M819.5 0V1080M1699 0H1339V360M1699 0V360M1699 0H2059V360M1699 360H1339M1699 360H2059M1699 360V720M1339 360V720M1339 39.5H2059M1339 119.5H2059M1339 199.5H2059M1339 279.5H2059M1339 79.5H2059M1339 159.5H2059M1339 239.5H2059M1339 319.5H2059M1578.5 0V1080M1498.5 0V1080M1658.5 0V1080M1418.5 0V1080M1378.5 0V1080M1618.5 0V1080M1458.5 0V1080M1538.5 0V1080M499.5 0V1080M419.5 0V1080M579.5 0V1080M339.5 0V1080M299.5 0V1080M539.5 0V1080M379.5 0V1080M459.5 0V1080M1340 360V720M1219.5 0V1080M1139.5 0V1080M1299.5 0V1080M1059.5 0V1080M1019.5 0V1080M1259.5 0V1080M1099.5 0V1080M1179.5 0V1080M2059 360V720M1938.5 0V1080M1858.5 0V1080M2018.5 0V1080M1778.5 0V1080M1738.5 0V1080M1978.5 0V1080M1818.5 0V1080M1898.5 0V1080M260 720H-100M260 720H620M260 720V1080M-100 720V1080H260M-100 399.5H1340M-100 479.5H1340M-100 559.5H1340M-100 639.5H1340M-100 439.5H1340M-100 519.5H1340M-100 599.5H1340M-100 679.5H1340M980 720H620M980 720H1340M980 720V1080M620 720V1080M1699 720H1339M1699 720H2059M1699 720V1080M1339 720V1080H1699M1339 399.5H2059M1339 479.5H2059M1339 559.5H2059M1339 639.5H2059M1339 439.5H2059M1339 519.5H2059M1339 599.5H2059M1339 679.5H2059M1340 720V1080H980M2059 720V1080H1699M260 1080H620M-100 759.5H1340M-100 839.5H1340M-100 919.5H1340M-100 999.5H1340M-100 799.5H1340M-100 879.5H1340M-100 959.5H1340M-100 1039.5H1340M980 1080H620M1339 759.5H2059M1339 839.5H2059M1339 919.5H2059M1339 999.5H2059M1339 799.5H2059M1339 879.5H2059M1339 959.5H2059M1339 1039.5H2059" stroke="url(#paint0_linear_157_858)" stroke-dasharray="6 6"/>
<defs>
<linearGradient id="paint0_linear_157_858" x1="979.5" y1="5.95771e-08" x2="979" y2="862" gradientUnits="userSpaceOnUse">
<stop offset="0.015" stop-color="#191C28" stop-opacity="0.12"/>
<stop offset="0.43" stop-color="#191C28"/>
<stop offset="1" stop-color="#1F2433" stop-opacity="0"/>
</linearGradient>
</defs>
</svg>
