<svg width="47" height="47" viewBox="0 0 47 47" fill="none" xmlns="http://www.w3.org/2000/svg">
<path d="M25.0052 16.4254V15.5127H18.9811V30.7555H25.0052V29.3864M25.0052 16.4254C27.5609 16.7297 32.5445 14.892 32.0334 5.10736C33.4938 4.31631 36.5241 4.06683 36.9622 9.39726C37.2658 13.0914 37.345 16.6171 36.5931 19.0724M25.0052 16.4254V29.3864M32.8548 22.4495C34.2299 22.3654 35.1994 21.729 35.8669 20.6944M37.236 15.5127H43.2601C43.8991 15.5127 44.8962 16.2279 44.9944 17.1556C45.087 18.0311 44.1425 18.9811 43.8078 19.0724M43.8078 19.0724H36.5931M43.8078 19.0724C44.4467 19.2853 45.4978 20.0452 45.542 21.0804C45.5886 22.1705 44.325 22.9972 43.8078 23.271M36.5931 19.0724C36.4058 19.6841 36.1668 20.2295 35.8669 20.6944M43.8078 23.271H37.236M43.8078 23.271C44.2642 23.5753 45.1404 24.4211 44.9944 25.3703C44.8118 26.5569 44.4226 26.9871 43.2601 27.2871M37.236 23.271C36.8101 23.1353 35.9399 22.4301 35.8669 20.6944M37.236 23.271C35.1915 25.3323 36.3841 26.8073 37.236 27.2871M43.2601 27.2871C41.5259 27.3175 38.9702 27.3175 37.236 27.2871M43.2601 27.2871C45.6333 27.5609 45.6333 30.4817 43.2601 30.7555C40.887 31.0293 37.7837 30.7555 37.7837 30.7555M37.236 27.2871C35.9947 29.1126 37.0839 30.36 37.7837 30.7555M37.7837 30.7555C35.5931 30.9381 31.0476 31.1936 30.3904 30.7555C29.569 30.2079 26.0092 29.2951 25.0052 29.3864M31.0293 39.5179L32.8548 41.9823L36.1407 38.24M25.0052 11.1315V1H19.8026L18.9811 5.56373L14.4174 7.57177L10.6751 4.74226L5.01608 10.2187L7.57177 13.8697L5.83755 18.5247L1 19.8026V27.2871L5.01608 28.1086L7.57177 32.9461L5.01608 36.5971L10.6751 41.7085L14.4174 39.2441L18.9811 41.7085L19.8026 45.6333H25.0052V35.7756C25.0052 35.7756 10.6879 36.6884 11.4966 22.9059C12.3053 9.12344 25.0052 11.1315 25.0052 11.1315ZM33.6763 34.224C36.8269 34.2996 39.2197 36.9141 39.2441 40.0655C39.2687 43.2428 36.8528 45.9222 33.6763 45.9984C30.4257 46.0764 27.8095 43.317 27.8347 40.0655C27.8597 36.8394 30.451 34.1466 33.6763 34.224Z" stroke="#131414"/>
</svg>
