<svg width="46" height="36" viewBox="0 0 46 36" fill="none" xmlns="http://www.w3.org/2000/svg">
<path d="M16.6771 16.4277C7.61443 17.5858 1 21.2187 1 25.521C1 30.7562 10.7938 35.0002 22.875 35.0002C34.9562 35.0002 44.75 30.7562 44.75 25.521C44.75 21.2187 38.1356 17.5858 29.0729 16.4277" stroke="#FF471D" stroke-width="2"/>
<path d="M22.2024 0.0127688C19.7923 0.237408 17.804 1.14582 16.1822 2.75815C13.9377 4.98932 12.9485 8.19392 13.5913 11.119C13.8423 12.2371 14.2239 13.2453 14.7964 14.2736C15.1327 14.8776 21.7555 24.8806 21.9665 25.1053C22.4887 25.6594 23.2719 25.6594 23.7941 25.1053C23.9196 24.9705 29.719 16.2752 30.5224 15.0073C31.7877 13.0207 32.4304 10.9343 32.3501 9.09239C32.2848 7.62489 31.9935 6.46183 31.3709 5.23393C30.8789 4.26058 30.3417 3.5168 29.5784 2.75815C28.1474 1.34054 26.3548 0.427025 24.3615 0.107623C23.8845 0.032743 22.5941 -0.0271792 22.2024 0.0127688ZM24.1858 1.21075C26.847 1.5951 29.3274 3.44192 30.442 5.86288C31.0044 7.08075 31.2304 8.08912 31.2304 9.39191C31.2304 10.0058 31.2103 10.2504 31.0998 10.7646C30.8487 11.9575 30.4371 12.9858 29.7341 14.1488C29.1114 15.187 22.9506 24.4164 22.8803 24.4164C22.81 24.4164 16.6491 15.187 16.0265 14.1488C15.3688 13.0556 14.9821 12.1372 14.721 11.0391C14.3143 9.32697 14.5101 7.60993 15.3185 5.86288C16.4583 3.38701 19.0341 1.5152 21.7505 1.18577C22.6443 1.07595 23.3121 1.08097 24.1858 1.21075Z" fill="#FF471D"/>
<path d="M22.0082 4.44436C20.2813 4.75666 18.8557 5.90838 18.1609 7.54122C17.5172 9.06146 17.6858 10.8838 18.5901 12.2709C19.3208 13.3817 20.3477 14.1137 21.7016 14.4873C22.1717 14.6153 23.5818 14.6153 24.0518 14.4873C25.4058 14.1137 26.4328 13.3817 27.1634 12.2709C27.8787 11.1807 28.1444 9.77808 27.8838 8.51375C27.5108 6.69151 26.2233 5.22758 24.476 4.62862C23.7351 4.37786 22.7745 4.30622 22.0082 4.44436ZM23.3723 5.55007C24.2307 5.66773 24.9665 6.01585 25.5847 6.59938C26.8671 7.81255 27.2093 9.63994 26.4532 11.2113C25.9525 12.2453 25.0328 13.0132 23.914 13.3357C23.3468 13.4994 22.4067 13.4994 21.8396 13.3357C19.8623 12.7675 18.6156 10.8223 18.9631 8.84138C19.2594 7.1368 20.6236 5.79577 22.3148 5.55512C22.7797 5.48862 22.9177 5.48862 23.3723 5.55007Z" fill="#FF471D"/>
<path d="M20.6901 22.6836C16.5095 22.9874 13.3984 24.143 13.3984 25.5222C13.3984 27.133 17.6424 28.4389 22.8776 28.4389C28.1128 28.4389 32.3568 27.133 32.3568 25.5222C32.3568 24.143 29.2457 22.9874 25.0651 22.6836" stroke="#FF471D" stroke-width="2"/>
</svg>
