<svg width="16" height="16" viewBox="0 0 16 16" fill="none" xmlns="http://www.w3.org/2000/svg">
<path d="M5.53915 2.60936L5.54033 2.61702L5.54174 2.62463L5.97217 4.94233C5.98712 5.07178 5.97787 5.14753 5.96762 5.18511C5.95699 5.22407 5.93997 5.25292 5.91311 5.27978L5.91311 5.27977L5.91131 5.2816L4.29464 6.91493L4.0339 7.17836L4.21015 7.50443C4.44711 7.9428 4.72758 8.36464 5.05068 8.76999C5.36929 9.1697 5.71891 9.55399 6.09917 9.92295C6.45709 10.2806 6.83269 10.6128 7.22596 10.9194C7.62212 11.2281 8.04115 11.5103 8.48282 11.766L8.81526 11.9585L9.08689 11.6869L10.6536 10.1202C10.6861 10.0877 10.7414 10.0498 10.8399 10.0192C10.9305 9.99106 11.0103 9.98463 11.0839 9.9934L13.3444 10.452C13.4023 10.471 13.4402 10.4985 13.4704 10.5337C13.4981 10.566 13.5 10.5829 13.5 10.6V13.3C13.5 13.3763 13.4799 13.413 13.4464 13.4464L13.8 13.8L13.4464 13.4464C13.413 13.4799 13.3763 13.5 13.3 13.5C11.9862 13.5 10.6832 13.214 9.38727 12.6351C8.09065 12.0559 6.90738 11.2336 5.83689 10.1631C4.7664 9.09262 3.94408 7.90935 3.36485 6.61273C2.78595 5.31685 2.5 4.01385 2.5 2.7C2.5 2.62368 2.52012 2.58699 2.55355 2.55355C2.58699 2.52012 2.62368 2.5 2.7 2.5H5.4C5.43065 2.5 5.45467 2.50635 5.48986 2.53674C5.53224 2.57335 5.53694 2.59498 5.53915 2.60936ZM3.55832 6.19979L3.85147 6.87231L4.37022 6.35355L5.47022 5.25355L5.65525 5.06852L5.60869 4.81102L5.32535 3.24435L5.25102 2.83333H4.83333H3.35H2.78532L2.85368 3.39386C2.91123 3.86584 2.99184 4.33227 3.09553 4.79309C3.20273 5.26955 3.35726 5.73854 3.55832 6.19979ZM9.62978 11.6131L9.11103 12.1319L9.78354 12.425C10.2422 12.6249 10.7106 12.7841 11.1885 12.9021C11.6654 13.0199 12.1461 13.0966 12.6302 13.132L13.1667 13.1713V12.6333V11.1667V10.7576L12.7657 10.6766L11.1991 10.3599L10.9361 10.3068L10.7464 10.4964L9.62978 11.6131ZM13.1455 7.5C13.0403 6.28123 12.5442 5.22042 11.6619 4.33811C10.7796 3.45581 9.71877 2.95972 8.5 2.85455V2.52119C9.07981 2.5711 9.62636 2.70904 10.1422 2.93348C10.8149 3.22619 11.3954 3.61915 11.8881 4.11189C12.3808 4.60462 12.7738 5.1851 13.0665 5.85782C13.291 6.37364 13.4289 6.92019 13.4788 7.5H13.1455ZM10.4537 7.5C10.3616 7.01965 10.1326 6.59213 9.77022 6.22978C9.40787 5.86743 8.98035 5.63844 8.5 5.54634V5.20593C9.07343 5.29953 9.5705 5.56094 10.0048 5.99522C10.4391 6.4295 10.7005 6.92658 10.7941 7.5H10.4537Z" stroke="white"/>
</svg>
